<svg width="52" height="52" viewBox="0 0 52 52" fill="none" xmlns="http://www.w3.org/2000/svg">
<path d="M31.625 24.0915V23.504C31.625 20.2798 29.105 17.6665 26 17.6665C22.895 17.6665 20.375 20.2798 20.375 23.504V24.0915C20.376 24.7928 20.1759 25.4797 19.7983 26.0707L18.875 27.5082C18.0325 28.8207 18.6758 30.6048 20.1417 31.0198C23.9717 32.1056 28.0282 32.1056 31.8583 31.0198C33.3242 30.6048 33.9675 28.8207 33.125 27.509L32.2017 26.0715C31.8238 25.4806 31.6234 24.7937 31.6242 24.0923L31.625 24.0915Z" stroke="#29343D" stroke-width="1.25"/>
<path opacity="0.5" d="M22.25 31.8333C22.7958 33.29 24.2683 34.3333 26 34.3333C27.7317 34.3333 29.2042 33.29 29.75 31.8333M26 21V24.3333" stroke="#29343D" stroke-width="1.25" stroke-linecap="round"/>
</svg>
