<svg width="188" height="72" viewBox="0 0 188 72" fill="none" xmlns="http://www.w3.org/2000/svg">
<g clip-path="url(#clip0_17401_478)">
<path d="M27.0961 12C26.5242 12 25.9652 12.1688 25.4897 12.4851C25.0142 12.8013 24.6436 13.2508 24.4248 13.7767C24.206 14.3026 24.1487 14.8813 24.2603 15.4396C24.3718 15.9979 24.6472 16.5108 25.0516 16.9133C25.4559 17.3158 25.9711 17.5899 26.532 17.7009C27.0929 17.812 27.6742 17.755 28.2025 17.5372C28.7309 17.3193 29.1824 16.9504 29.5001 16.4771C29.8179 16.0038 29.9874 15.4474 29.9874 14.8781C29.9879 14.5 29.9135 14.1255 29.7684 13.7761C29.6233 13.4267 29.4103 13.1092 29.1417 12.8418C28.8731 12.5745 28.5542 12.3625 28.2032 12.218C27.8521 12.0736 27.4759 11.9995 27.0961 12Z" fill="#635BFF"/>
<path d="M34.2589 12C33.6868 11.9992 33.1274 12.1674 32.6514 12.4831C32.1754 12.7989 31.8042 13.2481 31.5848 13.774C31.3653 14.2998 31.3075 14.8786 31.4186 15.4372C31.5297 15.9957 31.8048 16.509 32.209 16.9119C32.6132 17.3148 33.1284 17.5893 33.6893 17.7007C34.2503 17.812 34.8319 17.7553 35.3604 17.5375C35.889 17.3198 36.3408 16.9509 36.6587 16.4775C36.9766 16.0041 37.1462 15.4475 37.1462 14.8781C37.1468 14.5004 37.0725 14.1262 36.9276 13.777C36.7827 13.4278 36.5701 13.1105 36.302 12.8432C36.0338 12.5759 35.7153 12.3639 35.3647 12.2192C35.0142 12.0745 34.6384 12 34.2589 12Z" fill="#635BFF"/>
<path d="M123.78 20.8758C123.986 20.8758 124.197 20.8758 124.404 20.8758C124.205 20.86 123.994 20.8679 123.78 20.8758Z" fill="#635BFF"/>
<path d="M53.7587 49.9066C55.3555 49.9066 56.65 48.6181 56.65 47.0285C56.65 45.439 55.3555 44.1504 53.7587 44.1504C52.1618 44.1504 50.8673 45.439 50.8673 47.0285C50.8673 48.6181 52.1618 49.9066 53.7587 49.9066Z" fill="#635BFF"/>
<path d="M98.6761 47.7647C99.591 47.7647 100.468 47.4032 101.116 46.7596C101.763 46.1161 102.127 45.243 102.128 44.3324V26.2085L100.12 28.3305L99.0977 29.4192L97.8011 30.7889H99.0977V43.2753C99.0914 43.5818 99.001 43.8806 98.8363 44.1395C98.6715 44.3985 98.4387 44.6075 98.163 44.7441H94.7865V43.4495L93.4104 44.7362L92.3087 45.7694L90.177 47.7489H98.688L98.6761 47.7647Z" fill="#635BFF"/>
<path d="M94.6592 36.68C94.8643 36.0183 94.9688 35.3298 94.9694 34.6372V30.5477C94.9705 29.6417 94.792 28.7445 94.4442 27.9073C94.0964 27.0701 93.5861 26.3095 92.9426 25.6689C92.299 25.0283 91.5349 24.5203 90.6938 24.1741C89.8528 23.8279 88.9514 23.6502 88.0413 23.6513H71.4448H71.3335H71.2699H70.9557C70.7678 23.6307 70.5867 23.5693 70.4252 23.4715C70.2637 23.3737 70.1258 23.2418 70.021 23.0852C70.0022 23.0592 69.9862 23.0314 69.9733 23.002C69.871 22.8164 69.8176 22.608 69.8182 22.3963C69.8182 22.3607 69.8182 22.329 69.8182 22.2973C69.8337 22.1205 69.8837 21.9484 69.9654 21.7906C69.9758 21.7687 69.9877 21.7475 70.0012 21.7273C70.0943 21.5662 70.2215 21.4271 70.3739 21.3198C70.5264 21.2125 70.7005 21.1394 70.8841 21.1057C70.9652 21.0884 71.0477 21.0792 71.1306 21.078H82.3143V22.3686L83.6705 21.1057L84.7721 20.0764L86.9039 18.0771H70.379C69.4655 18.0771 68.5892 18.4376 67.9422 19.0794C67.2951 19.7213 66.93 20.5923 66.9268 21.5016V23.2554C66.9268 24.1668 67.2906 25.0408 67.938 25.6852C68.5854 26.3297 69.4634 26.6917 70.379 26.6917H87.3891C88.6093 26.7208 89.769 27.2267 90.6174 28.1002C91.4658 28.9736 91.9348 30.1444 91.923 31.3593V33.9919C91.8948 35.2073 91.387 36.3626 90.5094 37.208C89.6318 38.0534 88.4551 38.5208 87.234 38.509H41.7001C41.6802 38.5684 41.6643 38.6278 41.6484 38.6872C41.6245 38.7703 41.5967 38.8495 41.5688 38.9326L41.545 39.0079C41.545 39.0475 41.5171 39.087 41.5052 39.1266C41.4694 39.2256 41.4336 39.3246 41.3938 39.4196C41.354 39.5146 41.3342 39.5819 41.3023 39.6611C41.2705 39.7403 41.187 39.9382 41.1274 40.057C41.12 40.0711 41.1133 40.0857 41.1075 40.1005C41.1006 40.1201 41.0913 40.1387 41.0796 40.156C40.9683 40.4014 40.845 40.6429 40.7137 40.8765C40.5825 41.11 40.4711 41.304 40.3399 41.5099C40.2603 41.6366 40.1768 41.7593 40.0933 41.882L40.0694 41.9137C39.9939 42.0245 39.9143 42.1314 39.8308 42.2423V42.27C39.6598 42.4957 39.4808 42.7174 39.2899 42.9311C39.0791 43.1647 38.8604 43.3943 38.6337 43.6121L38.578 43.6675L38.5462 43.6952H38.5263C38.2877 43.9169 38.0411 44.1307 37.7866 44.3326L37.6832 44.4157C37.544 44.5226 37.4008 44.6255 37.2576 44.7285L37.2099 44.7641L37.1542 44.8037L37.0628 44.8631L36.9275 44.9541L36.7684 45.0571L36.4463 45.2511L36.2991 45.3342L36.2156 45.3857L36.1122 45.4371L36.0088 45.4925C35.9253 45.5401 35.8378 45.5836 35.7503 45.6272L35.4997 45.7499L35.3367 45.8211L35.2054 45.8805H35.1776L35.0265 45.9439L34.6924 46.126L34.593 46.1656L34.4617 46.2091C34.3464 46.2527 34.2311 46.2883 34.1157 46.3279L33.9646 46.3754L33.4993 46.5021L33.376 46.5337H33.2964L32.9783 46.609L32.8629 46.6327L32.3817 46.7198H32.2584C32.1113 46.7436 31.9601 46.7634 31.809 46.7792H31.7374L31.2283 46.8188H31.113C30.938 46.8188 30.763 46.8188 30.584 46.8188C27.522 46.8188 24.5853 45.6079 22.4201 43.4527C20.2549 41.2974 19.0385 38.3741 19.0385 35.3261C19.0385 32.278 20.2549 29.3548 22.4201 27.1995C24.5853 25.0442 27.522 23.8334 30.584 23.8334C30.763 23.8334 30.938 23.8334 31.117 23.8334H31.2045H31.3079L31.6658 23.8611H31.6937H31.8806L32.2226 23.9047L32.4215 23.9363C32.5408 23.9363 32.6601 23.9759 32.7754 23.9997L32.8828 24.0195H32.9464H32.9942C33.1161 24.0432 33.2394 24.0709 33.364 24.1026L33.4993 24.2728H33.5311C33.6782 24.3085 33.8214 24.352 33.9646 24.3956L34.1595 24.4589L34.4577 24.5579L34.6486 24.6291L34.931 24.74L35.1418 24.8271L35.4083 24.9458L35.5594 25.0171L35.6906 25.0804L35.9054 25.1913L35.9571 25.2151L36.1242 25.3101L36.2554 25.3813L36.3986 25.4645L36.6849 25.6387L36.7247 25.6624L36.9116 25.7812L37.1542 25.9474L37.3213 26.0662C37.4048 26.1256 37.4883 26.185 37.5678 26.2483L37.6752 26.3315C37.8184 26.4423 37.9576 26.5571 38.0968 26.6759L38.2479 26.8105L38.403 26.949L38.5581 27.0955C38.6775 27.2103 38.7968 27.3291 38.9081 27.4479C38.9277 27.4653 38.9463 27.4838 38.9638 27.5033C39.0805 27.6273 39.1958 27.7593 39.3098 27.8992L39.457 28.0773L39.5803 28.2278L39.6041 28.2594C39.7115 28.394 39.8149 28.5326 39.9143 28.6553L39.9422 28.691L39.9939 28.7662L40.2444 29.1344L40.316 29.2452L40.4353 29.4392L40.5427 29.6213C40.5825 29.6847 40.6183 29.752 40.6541 29.8153L40.7575 30.0053C40.7853 30.0568 40.8132 30.1083 40.837 30.1597C40.8444 30.1725 40.8511 30.1857 40.8569 30.1993C40.8927 30.2666 40.9245 30.33 40.9563 30.3973L41.0359 30.5635V30.5952C41.1512 30.8446 41.2586 31.098 41.354 31.3553H44.5556C44.484 31.1138 44.4085 30.8763 44.3249 30.6387C44.2732 30.4883 44.2176 30.3418 44.1619 30.1914L44.0863 30.0093C44.0545 29.9222 44.0187 29.839 43.9829 29.7559C43.9471 29.6728 43.9193 29.6055 43.8835 29.5303L43.8397 29.3561C43.8 29.2729 43.7602 29.1858 43.7165 29.0987V29.0631V29.0394L43.6886 28.9839V28.9483C43.6687 28.9127 43.6488 28.877 43.6329 28.8414L43.5415 28.6633L43.45 28.493L43.3943 28.394C43.3545 28.3188 43.3108 28.2436 43.267 28.1684L43.1835 28.0259L43.1239 27.9229L42.9409 27.63L42.7938 27.44V27.4162L42.6466 27.2262C42.6029 27.1589 42.5591 27.0916 42.5114 27.0243C42.2887 26.7076 42.0461 26.3988 41.7995 26.1018C41.5768 25.8406 41.3461 25.5832 41.1075 25.3338L40.8171 25.0409L40.7813 25.0092L40.4393 24.6687H40.4155L40.0575 24.352L40.0297 24.3283L39.9859 24.2728L39.62 23.9759L39.5564 23.9284L39.3615 23.7819L39.1706 23.6354L39.111 23.5919C38.9877 23.5048 38.8684 23.4177 38.7411 23.3346L38.6377 23.2673L38.5542 23.2118L38.4866 23.1683L38.2638 23.0258L38.1644 22.9704C38.0332 22.8872 37.9019 22.812 37.7667 22.7328H37.7349L37.4048 22.5547L37.1662 22.4319L37.0906 22.3963L36.8718 22.2855L36.5775 22.1548L36.49 22.1152C36.4264 22.0875 36.3628 22.0558 36.2952 22.0321L35.8855 21.8579L35.7781 21.8183L35.6549 21.7708L35.5276 21.7233L35.3446 21.66L35.0662 21.5649H35.0344L34.7719 21.4818H34.7361L34.4896 21.4105L34.3862 21.3828L34.1436 21.3155L34.0401 21.2918L33.897 21.2443C33.8055 21.2245 33.714 21.2007 33.6226 21.1849L33.4993 21.1532L33.3521 21.1295H33.3044L33.0379 21.082H32.9464H32.855H32.6999L32.4374 21.0424L32.2544 21.0226H32.1868L31.9522 20.9988H31.8289L31.5107 20.8959H31.4749H31.2602H31.113C30.934 20.8959 30.7551 20.8959 30.5761 20.8959C26.7483 20.9588 23.0986 22.5166 20.4141 25.2334C17.7295 27.9502 16.225 31.6083 16.225 35.4191C16.225 39.2299 17.7295 42.8881 20.4141 45.6049C23.0986 48.3217 26.7483 49.8794 30.5761 49.9424C30.8028 49.9424 31.0255 49.9424 31.2482 49.9424H31.4391L31.9522 49.9028H32.1192L32.6323 49.8355H32.7635H32.8947H32.9822L33.4078 49.7563L33.6066 49.7167L34.1117 49.6019L34.243 49.5702C34.4458 49.5188 34.6407 49.4594 34.8435 49.4L35.0503 49.2139C35.1219 49.2139 35.1895 49.1664 35.2611 49.1427C35.3327 49.1189 35.4043 49.0991 35.4719 49.0714L35.6827 49.0001L36.156 48.818H36.1957L36.319 48.7666L36.3668 48.7428L36.5179 48.6755C36.6133 48.632 36.7128 48.5924 36.8042 48.5449L36.9633 48.4696L37.0389 48.4221L37.3809 48.2479L37.6036 48.1331L38.0888 47.8521L38.2042 47.7808L38.3155 47.7135L38.6059 47.5274L38.7331 47.4403L38.8564 47.3572L38.9399 47.3018L39.1229 47.1711C39.2502 47.0801 39.3735 46.9851 39.4967 46.89L39.6161 46.799L39.7712 46.6763L39.9342 46.5417L40.0297 46.4585L40.2285 46.2883L40.491 46.0547L40.5189 46.027L40.6461 45.9043C40.7575 45.8013 40.8649 45.6905 40.9722 45.5836L41.1274 45.4292L41.1711 45.3857L41.2666 45.2867L41.5251 45.0016L41.5489 44.97L41.6484 44.8552C41.7915 44.6889 41.9307 44.5226 42.066 44.3524C42.2012 44.1822 42.3284 44.008 42.4637 43.8298C42.4911 43.7972 42.5163 43.7628 42.5392 43.7269L42.5591 43.6992C42.6387 43.5883 42.7182 43.4735 42.7938 43.3547L42.8494 43.2676V43.2479C43.0165 42.9945 43.1716 42.7372 43.3187 42.4759V42.4561L43.442 42.2463C43.4738 42.1829 43.5096 42.1196 43.5454 42.0562C43.5536 42.0327 43.5643 42.0102 43.5772 41.9889L43.613 41.9216C43.6767 41.791 43.7443 41.6643 43.8039 41.5257H49.8054V41.3951L49.8293 41.5257H88.0493C88.7451 41.5271 89.4371 41.4229 90.1015 41.2169C91.1733 40.8844 92.148 40.2978 92.9419 39.5075C93.7358 38.7173 94.3251 37.747 94.6592 36.68Z" fill="#635BFF"/>
<path d="M74.5629 36.3631H86.3272C87.2417 36.3631 88.1188 36.0015 88.7654 35.3578C89.4121 34.7141 89.7754 33.841 89.7754 32.9307V31.743C89.7754 30.8324 89.4122 29.9589 88.7657 29.3146C88.1191 28.6703 87.2421 28.3078 86.3272 28.3067H69.6234C68.4028 28.2777 67.2427 27.7718 66.3936 26.8985C65.5446 26.0252 65.0747 24.8545 65.0855 23.6392V20.8323C65.1157 19.618 65.6243 18.4642 66.5015 17.6199C67.3788 16.7756 68.5543 16.3084 69.7745 16.3192H86.9158L84.7841 14.3397L83.6825 13.3104L82.2944 12V13.2906H68.9592C67.48 13.2855 66.0384 13.7538 64.8468 14.6262C63.6553 15.4987 62.7769 16.7292 62.3413 18.1363C62.1346 18.799 62.03 19.4891 62.0311 20.1831V24.4349C62.0298 25.1276 62.1344 25.8164 62.3413 26.4777C62.7781 27.884 63.656 29.114 64.8462 29.9874C66.0365 30.8609 67.4765 31.3319 68.9552 31.3313H85.7028C85.9385 31.3306 86.167 31.4117 86.3492 31.5605C86.5314 31.7093 86.6558 31.9166 86.7011 32.1469C86.7046 32.1718 86.7046 32.1971 86.7011 32.2221C86.7032 32.259 86.7032 32.296 86.7011 32.3329C86.6994 32.5817 86.6056 32.8211 86.4375 33.0052C86.2694 33.1894 86.0389 33.3052 85.7903 33.3306H57.7994V30.7969H59.092L57.7994 29.4192L56.7733 28.3344L54.7848 26.2125V36.3631H74.5908H74.5629Z" fill="#635BFF"/>
<path d="M109.86 36.3629H115.066C115.09 36.5648 115.117 36.7588 115.149 36.9568C115.181 37.1468 115.221 37.3329 115.265 37.5189V37.5506C115.356 37.9292 115.471 38.302 115.607 38.667C116.005 39.7064 116.586 40.6673 117.321 41.5055C118.076 42.3651 118.982 43.0814 119.993 43.6196H120.029C120.156 43.6869 120.288 43.7502 120.427 43.8136L120.514 43.8532L120.86 44.0036L120.988 44.0511C121.094 44.096 121.201 44.1356 121.31 44.1699L121.457 44.2214C121.56 44.2583 121.664 44.29 121.767 44.3164L121.934 44.3639L122.237 44.4391L122.415 44.4826L122.718 44.542L122.901 44.5737L123.215 44.6172L123.398 44.641L123.736 44.6687H123.895C124.062 44.6687 124.233 44.6687 124.4 44.6687C126.687 44.6681 128.896 43.8373 130.612 42.3318C132.328 40.8264 133.433 38.7498 133.721 36.4911C134.009 34.2324 133.459 31.9468 132.175 30.0626C130.891 28.1784 128.961 26.8249 126.747 26.2559C126.448 26.1806 126.142 26.1173 125.832 26.0698C125.358 25.9982 124.879 25.9625 124.4 25.9629H124.046H123.931H123.692H123.561L123.338 25.9866H123.207L122.98 26.0183H122.861L122.59 26.0698H122.519L122.189 26.145L122.089 26.1688L121.855 26.2321L121.731 26.2677L121.529 26.3311L121.401 26.3707L121.202 26.4419L121.079 26.4855L120.86 26.5726L120.765 26.6122L120.463 26.7428L120.387 26.7824L120.16 26.8893L120.049 26.9487L119.866 27.0476L119.747 27.1149L119.572 27.2139L119.457 27.2852L119.278 27.4L119.178 27.4673C119.095 27.5227 119.011 27.5781 118.932 27.6375L118.872 27.6811L118.645 27.8513L118.55 27.9265L118.387 28.0572L118.283 28.1442C118.232 28.1878 118.18 28.2313 118.132 28.2789L118.033 28.3659C117.981 28.4135 117.929 28.461 117.882 28.5124L117.79 28.5956L117.611 28.7816C117.592 28.7968 117.575 28.814 117.559 28.8331L117.337 29.0746L117.277 29.1498L117.122 29.328L117.05 29.423C117.003 29.4784 116.959 29.5378 116.915 29.5932L116.844 29.6882L116.708 29.8743L116.649 29.9614L116.498 30.187C116.485 30.2027 116.474 30.22 116.466 30.2385C116.406 30.3296 116.35 30.4206 116.295 30.5156C116.156 30.7492 116.032 30.9867 115.897 31.2322H119.476C119.758 30.8911 120.074 30.5794 120.419 30.3019L120.487 30.2504C120.566 30.187 120.646 30.1277 120.729 30.0722L120.801 30.0208C120.9 29.9535 121 29.8862 121.103 29.8268L121.179 29.7832C121.262 29.7318 121.35 29.6843 121.437 29.6368L121.525 29.5932C121.632 29.5378 121.739 29.4863 121.851 29.4388L121.922 29.4071L122.209 29.2963L122.3 29.2646C122.419 29.2211 122.535 29.1854 122.654 29.1498H122.714C122.817 29.1181 122.925 29.0944 123.028 29.0706L123.127 29.0508C123.251 29.0231 123.378 29.0033 123.505 28.9835H123.537L123.891 28.9479H123.994H124.392C124.503 28.9479 124.611 28.9479 124.718 28.9479C124.937 28.9479 125.148 28.9796 125.359 29.0113C125.569 29.0429 125.776 29.0865 125.979 29.1379L126.234 29.2092C127.774 29.5804 129.12 30.5107 130.008 31.8178C130.896 33.1249 131.261 34.7147 131.034 36.2761C130.806 37.8376 130.001 39.2581 128.776 40.2598C127.551 41.2614 125.995 41.772 124.412 41.6916C124.293 41.6916 124.169 41.6916 124.05 41.6916H123.967L123.68 41.6639H123.613C123.509 41.6639 123.406 41.6481 123.302 41.6164H123.267C123.155 41.6164 123.048 41.5728 122.936 41.5451L122.638 41.466L122.368 41.3789L122.28 41.3472C122.215 41.3269 122.152 41.3031 122.089 41.2759L121.982 41.2324L121.811 41.1611L121.704 41.1097L121.541 41.0305L121.437 40.9751L121.266 40.88L121.179 40.8325C121.095 40.7811 121.012 40.7296 120.932 40.6742C120.845 40.6207 120.762 40.5625 120.681 40.5L120.447 40.3139L120.2 40.1081L119.989 39.9101L119.791 39.7042C119.727 39.633 119.663 39.5617 119.604 39.4865C119.54 39.4152 119.48 39.3361 119.421 39.2608L119.242 39.0154C119.17 38.9125 119.107 38.8135 119.043 38.7066L118.991 38.6155C118.947 38.5403 118.904 38.4651 118.864 38.3859L118.808 38.283L118.689 38.0257L118.653 37.9505C118.605 37.8436 118.566 37.7327 118.526 37.6219L118.478 37.4912C118.454 37.4239 118.43 37.3527 118.411 37.2814C118.391 37.2101 118.379 37.1745 118.367 37.123C118.355 37.0716 118.331 36.9884 118.315 36.9251C118.299 36.8618 118.287 36.8182 118.279 36.7628C118.271 36.7074 118.232 36.545 118.216 36.4342C118.2 36.3233 118.176 36.1373 118.16 35.9868C118.16 35.9552 118.16 35.9275 118.16 35.8997V35.7374C118.16 35.6464 118.16 35.5514 118.16 35.4563C118.16 34.8224 118.258 34.1922 118.45 33.5877H107.43V30.7967H108.726L107.43 29.419L106.408 28.3343L104.419 26.2123V36.3629H109.86Z" fill="#635BFF"/>
<path d="M124.412 20.86C124.205 20.86 124.014 20.86 123.788 20.86H123.581L123.183 20.8877L122.936 20.9115L122.571 20.9511L122.308 20.9907L121.97 21.0421L121.7 21.0896L121.377 21.1569C121.286 21.1569 121.194 21.1965 121.103 21.2163L120.793 21.2915L120.514 21.3667L120.22 21.4499L119.938 21.537L119.659 21.632L119.373 21.7349L119.122 21.8299L118.816 21.9527L118.621 22.0358C118.174 22.2278 117.737 22.4432 117.313 22.6811H117.281C117.146 22.7603 117.015 22.8355 116.883 22.9186L116.788 22.9741C116.661 23.0532 116.533 23.1324 116.41 23.2156L116.307 23.2829L115.937 23.5402L115.841 23.6075L115.475 23.8846L115.396 23.944L115.03 24.2726L114.978 24.3201C114.847 24.4309 114.72 24.5418 114.581 24.6566C114.104 25.092 113.658 25.5589 113.244 26.0541C113.125 26.1926 113.01 26.3391 112.894 26.4856L112.851 26.545C112.735 26.6915 112.624 26.8419 112.516 26.9923C112.426 27.1217 112.335 27.2536 112.242 27.3882V27.412C112.158 27.5387 112.079 27.6654 111.999 27.8079L111.884 28.0019L111.753 28.2275L111.622 28.469L111.526 28.6432C111.478 28.7343 111.427 28.8293 111.383 28.9243C111.375 28.9353 111.368 28.9473 111.363 28.9599L111.335 29.0153V29.0391C111.083 29.5538 110.862 30.0825 110.671 30.6227C110.592 30.8602 110.512 31.0977 110.44 31.3392H113.622C113.721 31.0819 113.825 30.8285 113.94 30.5791C113.972 30.5118 114.004 30.4485 114.032 30.3812C114.06 30.3139 114.099 30.2505 114.131 30.1832L114.231 29.9892L114.338 29.7992C114.37 29.7319 114.41 29.6686 114.445 29.6052L114.557 29.4192C114.592 29.3558 114.632 29.2964 114.672 29.2331L114.791 29.047L114.911 28.8728C114.954 28.8055 115.002 28.7382 115.05 28.6749C115.098 28.6115 115.121 28.568 115.161 28.5165L115.416 28.1879L115.539 28.0375L115.694 27.8554L115.829 27.701L115.984 27.5308L116.128 27.3803L116.287 27.218L116.438 27.0715L116.605 26.9171L116.756 26.7786L116.931 26.6242L117.086 26.4935L117.281 26.3352L117.416 26.252L117.703 26.0422L117.842 25.9432L118.12 25.7532L118.267 25.6622L118.49 25.5236L118.653 25.4286L118.872 25.3059L119.043 25.2108L119.266 25.1L119.437 25.0129L119.667 24.906L119.838 24.8308L120.089 24.7279L120.248 24.6606L120.546 24.5497L120.666 24.5062L121.083 24.3716L121.202 24.3399C121.306 24.3082 121.409 24.2765 121.517 24.2528L121.68 24.2092L121.954 24.1459L122.133 24.1103L122.404 24.0588L122.586 24.0271L122.857 23.9875L123.044 23.9638L123.322 23.9321H123.501L123.815 23.9123H123.967C124.12 23.9123 124.275 23.9123 124.432 23.9123C125.948 23.9123 127.449 24.2096 128.85 24.7872C130.251 25.3647 131.524 26.2113 132.596 27.2785C133.668 28.3456 134.518 29.6126 135.099 31.007C135.679 32.4013 135.977 33.8958 135.977 35.405C135.977 36.9143 135.679 38.4087 135.099 39.8031C134.518 41.1974 133.668 42.4644 132.596 43.5316C131.524 44.5988 130.251 45.4453 128.85 46.0229C127.449 46.6004 125.948 46.8977 124.432 46.8977H123.903H123.78L123.267 46.8581H123.199C123.048 46.8423 122.897 46.8225 122.746 46.7987H122.626L122.141 46.7116L122.026 46.6879L121.628 46.5968L121.501 46.5652L121.055 46.4385L120.904 46.391L120.558 46.2722L120.423 46.2287L120.025 46.0663L119.846 45.9911L119.552 45.8605L119.301 45.7378L119.043 45.6031L118.836 45.4923C118.762 45.4527 118.686 45.4092 118.609 45.3617C118.498 45.2983 118.391 45.235 118.287 45.1677L118.12 45.0608C118.041 45.0093 117.965 44.9618 117.89 44.9064L117.786 44.8351C117.643 44.7322 117.5 44.6293 117.361 44.5224L117.257 44.4392C117.003 44.2373 116.756 44.0433 116.517 43.8018L116.47 43.7543C116.219 43.5208 115.984 43.2714 115.758 43.018C115.366 42.5717 115.008 42.0966 114.688 41.5967C114.41 41.1629 114.163 40.7105 113.948 40.2428C113.948 40.2428 113.948 40.2072 113.92 40.1874C113.773 39.8627 113.638 39.5262 113.523 39.1858C113.523 39.1462 113.499 39.1066 113.483 39.067C113.451 38.9601 113.415 38.8572 113.383 38.7463H104.387V45.1677C104.357 46.382 103.848 47.5357 102.971 48.3801C102.094 49.2244 100.918 49.6916 99.6982 49.6808H90.4912L92.6269 51.6603L93.7246 52.6896L95.1007 53.9802V52.6896H100.506C102.23 52.6966 103.895 52.0597 105.171 50.9046C106.447 49.7495 107.242 48.1602 107.398 46.4504H107.43V41.5294H111.2C111.264 41.664 111.327 41.7907 111.395 41.9253C111.395 41.9689 111.439 42.0164 111.462 42.0599L111.665 42.4558C111.812 42.7211 111.972 42.9824 112.135 43.2476C112.159 43.2804 112.182 43.3148 112.202 43.3505C112.282 43.4693 112.357 43.5841 112.441 43.695L112.532 43.8256C112.787 44.1779 113.057 44.5224 113.328 44.851L113.455 44.9935C113.539 45.0924 113.626 45.1875 113.714 45.2825L113.849 45.425C114.008 45.5873 114.167 45.7457 114.33 45.9001C114.382 45.9515 114.433 46.003 114.489 46.0505L114.752 46.288L114.946 46.4543L115.205 46.6721L115.471 46.8819L115.869 47.1669L116.132 47.353L116.382 47.5232L116.673 47.7053L116.899 47.8478C117.058 47.9429 117.221 48.0379 117.388 48.1289L117.607 48.2437L117.953 48.4179L118.18 48.5288C118.327 48.6 118.47 48.6634 118.617 48.7267L118.792 48.8019C118.963 48.8732 119.134 48.9405 119.309 49.0038L119.516 49.0791C119.655 49.1305 119.799 49.178 119.938 49.2216L120.133 49.2849C120.327 49.3443 120.53 49.4037 120.729 49.4552L120.864 49.4868L121.365 49.6016L121.564 49.6412C121.735 49.6769 121.906 49.7085 122.081 49.7362H122.213L122.857 49.8194H123.028L123.537 49.859H123.732C123.951 49.859 124.177 49.859 124.4 49.859C128.228 49.7961 131.877 48.2383 134.562 45.5215C137.247 42.8047 138.751 39.1465 138.751 35.3357C138.751 31.5249 137.247 27.8668 134.562 25.15C131.877 22.4332 128.228 20.8754 124.4 20.8125L124.412 20.86Z" fill="#635BFF"/>
<path d="M41.9785 33.5125H36.6571C36.8459 34.1176 36.9424 34.7474 36.9435 35.3811C36.9435 35.4761 36.9435 35.5711 36.9435 35.6621C36.9435 35.6899 36.9435 35.7215 36.9435 35.7492C36.9435 35.7769 36.9435 35.8007 36.9435 35.8284C36.9435 35.8561 36.9435 35.8838 36.9435 35.9116C36.9435 36.062 36.9116 36.2085 36.8878 36.3589C36.8639 36.5093 36.852 36.5806 36.8281 36.6875L36.8043 36.7825C36.8065 36.8049 36.8065 36.8274 36.8043 36.8498L36.7565 37.0478C36.7565 37.0478 36.7565 37.0913 36.7367 37.1111C36.7292 37.1433 36.7199 37.175 36.7088 37.2061C36.7088 37.2774 36.6651 37.3486 36.6412 37.4159C36.6173 37.4832 36.6134 37.503 36.5975 37.5466C36.5577 37.6574 36.5139 37.7683 36.4662 37.8752C36.4662 37.8989 36.4423 37.9227 36.4344 37.9504C36.3946 38.0375 36.3548 38.1246 36.3111 38.2077C36.2674 38.2909 36.2753 38.275 36.2594 38.3106L36.1321 38.5403C36.1122 38.5719 36.0924 38.6036 36.0765 38.6353C36.0128 38.7342 35.9492 38.8372 35.8856 38.9322C35.8219 39.0272 35.7623 39.1064 35.6986 39.1895L35.5077 39.4231L35.3168 39.6408L35.1856 39.7794C35.1617 39.7794 35.1418 39.8229 35.118 39.8467L34.9072 40.0446L34.6845 40.2347L34.4458 40.4207L34.2669 40.5474L34.1953 40.5949C34.1078 40.6543 34.0203 40.7097 33.9288 40.7612L33.8254 40.8206L33.6544 40.9156L33.5351 40.975L33.376 41.0542L33.2607 41.1017L33.0857 41.1809L32.9823 41.2165L32.7874 41.2917L32.6959 41.3194L32.4811 41.3907H32.4016L32.1709 41.4501L31.8766 41.5134H31.8448H31.809H31.6738L31.4988 41.5411H31.4272H31.3835C31.3039 41.5411 31.2204 41.5411 31.1409 41.5649H31.0613C30.938 41.5649 30.8187 41.5649 30.6954 41.5649C29.0078 41.5649 27.3892 40.8975 26.1958 39.7096C25.0025 38.5217 24.3321 36.9106 24.3321 35.2306C24.3321 35.1316 24.3321 35.0287 24.3321 34.9297C24.3321 34.8981 24.3321 34.8664 24.3321 34.8347C24.3321 34.8031 24.3321 34.6962 24.3321 34.6289V34.518L24.3559 34.3319C24.3559 34.2924 24.3559 34.2567 24.3559 34.2211L24.3519 34.1696C24.3566 34.135 24.3633 34.1006 24.3718 34.0667C24.3718 33.9915 24.4036 33.9163 24.4235 33.845V33.7856C24.4474 33.6906 24.4752 33.5956 24.5031 33.5045L24.5269 33.4333L24.5985 33.2314L24.6343 33.1324C24.6542 33.077 24.6781 33.0176 24.7019 32.9582C24.7258 32.8988 24.7298 32.8949 24.7457 32.8592L24.8212 32.693C24.8375 32.6621 24.8521 32.6303 24.865 32.5979L24.9604 32.4158C24.9722 32.3913 24.9854 32.3675 25.0002 32.3446C25.0426 32.2628 25.0904 32.1796 25.1434 32.0952C25.1441 32.0859 25.1441 32.0767 25.1434 32.0675L25.2786 31.8576L25.3343 31.7824C25.3701 31.727 25.4059 31.6755 25.4456 31.6241L25.5093 31.5409L25.6206 31.3984L25.6882 31.3153L25.8155 31.1727L25.8752 31.1015L26.0502 30.9233L26.07 30.8996L26.2769 30.7016L26.3365 30.6502L26.4916 30.5156L26.5712 30.4522L26.7183 30.3374L26.8018 30.2741L26.953 30.1672L27.0365 30.1078L27.2194 29.9969L27.2791 29.9574C27.3586 29.9059 27.4422 29.8584 27.5257 29.8148L27.5814 29.7871L27.7802 29.6842L27.8717 29.6406L28.0427 29.5654L28.1461 29.5219L28.3171 29.4546L28.4205 29.415L28.6035 29.3556L28.6949 29.3239L28.9694 29.2487L29.2279 29.1893C29.4249 29.1474 29.6241 29.1157 29.8244 29.0943C29.9597 29.0785 30.0922 29.0666 30.2221 29.0587C30.3295 29.0587 30.4409 29.0587 30.5483 29.0587H30.946H31.0375C31.1568 29.0587 31.2761 29.0587 31.3914 29.0943H31.4272C31.5545 29.0943 31.6778 29.1339 31.8011 29.1616L31.9005 29.1814L32.2147 29.2566H32.2704C32.3897 29.2923 32.505 29.3279 32.6243 29.3714L32.7198 29.4031L33.0021 29.514L33.0737 29.5456C33.1851 29.5931 33.2965 29.6446 33.4038 29.7L33.4714 29.7357L33.7339 29.8821L33.7976 29.9217C33.901 29.9811 34.0044 30.0484 34.0998 30.1157L34.1396 30.1434L34.1754 30.1672C34.2549 30.2226 34.3345 30.282 34.414 30.3453L34.4816 30.3968C34.8536 30.6922 35.1911 31.0281 35.4878 31.3984H39.0672C38.9519 31.1529 38.8246 30.9154 38.6695 30.6818C38.6138 30.5868 38.5582 30.4958 38.4985 30.4047L38.4667 30.3533L38.3195 30.1316L38.2718 30.0207L38.1406 29.8386L38.069 29.7436C37.9536 29.5931 37.8343 29.4467 37.7071 29.3041L37.6434 29.2289C37.5718 29.1458 37.4963 29.0666 37.4207 28.9874C37.1876 28.7339 36.9407 28.4934 36.681 28.2669L36.6094 28.2036C36.4543 28.0769 36.2952 27.9502 36.1321 27.8314L36.0765 27.7918L35.8498 27.6374L35.7464 27.5701C35.4958 27.4078 35.2413 27.2574 34.9788 27.1188L34.8276 27.0436C34.6288 26.9446 34.4299 26.8496 34.2231 26.7665L34.1714 26.7427L33.8254 26.6081H33.7896L33.5947 26.5408L33.4675 26.5012C33.2845 26.4419 33.0976 26.3864 32.9107 26.3389L32.8152 26.3152L32.4811 26.24H32.4493L32.1431 26.1845H32.0556C31.8528 26.1529 31.6579 26.1291 31.4431 26.1093H31.3676C31.113 26.0895 30.8585 26.0776 30.6 26.0776H30.1665H30.0392L29.721 26.1014H29.5938C29.4506 26.1014 29.3114 26.1331 29.1722 26.1568C29.1284 26.1568 29.0887 26.1568 29.0449 26.1806C28.7798 26.2228 28.5146 26.2782 28.2495 26.3468C28.1143 26.3825 27.9791 26.4181 27.8518 26.4616L27.7166 26.5052L27.4461 26.5963L27.291 26.6517L27.0405 26.7506L26.8893 26.814L26.6388 26.9288L26.4996 26.9921L26.2092 27.1426L26.1257 27.1861C26.0024 27.2534 25.8791 27.3207 25.7598 27.396L25.6604 27.4553L25.4059 27.6216C25.3619 27.6484 25.3194 27.6774 25.2786 27.7087L25.0559 27.8631C25.0118 27.8939 24.9693 27.9269 24.9286 27.9621L24.7178 28.1244L24.5945 28.2234L24.3758 28.4134L24.2764 28.5005C24.1769 28.5915 24.0735 28.6866 23.9741 28.7855L23.9343 28.8291C23.8468 28.9162 23.7673 28.9993 23.6838 29.0904L23.5883 29.1973L23.4094 29.4031L23.306 29.5298L23.1429 29.7357L23.0435 29.8623C22.9918 29.9376 22.9361 30.0128 22.8844 30.092L22.8009 30.2068C22.7333 30.3057 22.6696 30.4087 22.606 30.5116L22.5742 30.5631C22.5026 30.6818 22.431 30.8006 22.3634 30.9233L22.3037 31.0381L22.1685 31.2994L22.1009 31.4419C22.0611 31.5251 22.0253 31.6043 21.9895 31.6874C21.9537 31.7705 21.9458 31.7864 21.9259 31.8378C21.906 31.8893 21.8583 32.0081 21.8265 32.0912C21.7947 32.1743 21.7867 32.1902 21.7708 32.2377C21.7549 32.2852 21.6992 32.4356 21.6674 32.5346L21.6316 32.6415C21.5918 32.7801 21.5521 32.9147 21.5163 33.0374L21.4924 33.1284C21.4646 33.2393 21.4407 33.3501 21.4168 33.461C21.4168 33.5085 21.3969 33.56 21.389 33.6075C21.381 33.655 21.3532 33.7975 21.3373 33.8886L21.3134 34.0548C21.3134 34.1459 21.2856 34.2369 21.2776 34.3319C21.2697 34.427 21.2776 34.4428 21.2577 34.4982L21.2339 34.7951C21.2339 34.8426 21.2339 34.8902 21.2339 34.9416C21.2339 35.0881 21.2339 35.2385 21.2339 35.385C21.238 37.8569 22.2236 40.227 23.9759 41.9786C25.7281 43.7302 28.1048 44.7213 30.588 44.7359C30.8108 44.7359 31.0335 44.7359 31.2522 44.7122L31.5943 44.6845L31.7732 44.6607H31.805C32.1272 44.6172 32.4414 44.5618 32.7516 44.4905L33.0539 44.4153L33.3243 44.3361L33.5271 44.2728L33.6703 44.2252C33.7817 44.1896 33.889 44.15 33.9964 44.1065L34.1197 44.059L34.4578 43.9125L34.7083 43.7937L34.947 43.675H34.9748L35.3725 43.4493L35.4918 43.3741L35.7662 43.1999L35.9054 43.1049L36.148 42.9307L36.2912 42.8238L36.5179 42.6456L36.6531 42.5308L36.8759 42.3368L37.0031 42.222L37.2298 42.0003C37.2656 41.9647 37.3014 41.933 37.3332 41.8974C37.4406 41.7866 37.544 41.6757 37.6474 41.5609C38.386 40.7202 38.9679 39.7549 39.3655 38.7105C39.3973 38.6313 39.4212 38.5521 39.449 38.473C39.5541 38.1744 39.643 37.8704 39.7155 37.5624C39.7593 37.3763 39.799 37.1903 39.8308 37.0002C39.8627 36.8023 39.8945 36.6044 39.9144 36.4064H52.6411V26.2083L50.6526 28.3303L49.6304 29.419L48.3379 30.7887H49.6304V33.5045H41.9785V33.5125Z" fill="#635BFF"/>
</g>
<defs>
<clipPath id="clip0_17401_478">
<rect width="123" height="42" fill="white" transform="translate(16 12)"/>
</clipPath>
</defs>
</svg>
