<svg width="52" height="52" viewBox="0 0 52 52" fill="none" xmlns="http://www.w3.org/2000/svg">
<path d="M33.7084 25.9998C33.7084 28.0442 32.8962 30.0049 31.4506 31.4505C30.005 32.896 28.0444 33.7082 26 33.7082V34.9582C30.9475 34.9582 34.9584 30.9473 34.9584 25.9998H33.7084ZM26 33.7082C23.9556 33.7082 21.995 32.896 20.5494 31.4505C19.1038 30.0049 18.2917 28.0442 18.2917 25.9998H17.0417C17.0417 30.9473 21.0525 34.9582 26 34.9582V33.7082ZM18.2917 25.9998C18.2917 23.9555 19.1038 21.9948 20.5494 20.5492C21.995 19.1036 23.9556 18.2915 26 18.2915V17.0415C21.0525 17.0415 17.0417 21.0523 17.0417 25.9998H18.2917ZM28.9167 27.8748C27.6459 27.8748 26.4271 27.37 25.5285 26.4714C24.6299 25.5728 24.125 24.354 24.125 23.0832H22.875C22.875 24.6855 23.5116 26.2222 24.6446 27.3553C25.7776 28.4883 27.3143 29.1248 28.9167 29.1248V27.8748ZM33.0209 25.5573C32.5947 26.2648 31.9928 26.8499 31.2737 27.256C30.5545 27.6621 29.7426 27.8753 28.9167 27.8748V29.1248C29.9579 29.1254 30.9815 28.8567 31.8883 28.345C32.795 27.8332 33.5541 27.0957 34.0917 26.204L33.0209 25.5573ZM24.125 23.0832C24.1247 22.2573 24.3379 21.4454 24.7439 20.7263C25.15 20.0071 25.7351 19.4052 26.4425 18.979L25.7959 17.909C24.9043 18.4465 24.1668 19.2054 23.655 20.112C23.1432 21.0186 22.8745 22.0421 22.875 23.0832H24.125ZM26 18.2915C25.9155 18.2895 25.8352 18.2542 25.7767 18.1932C25.7409 18.1584 25.717 18.1132 25.7084 18.064C25.705 18.0382 25.7067 17.9632 25.7959 17.909L26.4425 18.979C26.8617 18.7257 26.9967 18.2615 26.9475 17.8965C26.8959 17.5173 26.5975 17.0415 26 17.0415V18.2915ZM34.0917 26.204C34.0367 26.2932 33.9617 26.2948 33.9359 26.2915C33.8867 26.2829 33.8415 26.259 33.8067 26.2232C33.7457 26.1646 33.7103 26.0843 33.7084 25.9998H34.9584C34.9584 25.4023 34.4825 25.104 34.1034 25.0523C33.7384 25.0032 33.2742 25.1382 33.0209 25.5573L34.0917 26.204Z" fill="#29343D"/>
</svg>
